<svg width="20" height="20" viewBox="0 0 20 20" fill="none" xmlns="http://www.w3.org/2000/svg">
<path d="M16.6667 17.7778H3.33333C2.72222 17.7778 2.22222 17.2778 2.22222 16.6667V3.33333C2.22222 2.72222 2.72222 2.22222 3.33333 2.22222H8.88889C9.5 2.22222 10 1.72222 10 1.11111C10 0.5 9.5 0 8.88889 0H2.22222C0.988889 0 0 1 0 2.22222V17.7778C0 19 1 20 2.22222 20H17.7778C19 20 20 19 20 17.7778V11.1111C20 10.5 19.5 10 18.8889 10C18.2778 10 17.7778 10.5 17.7778 11.1111V16.6667C17.7778 17.2778 17.2778 17.7778 16.6667 17.7778ZM12.2222 1.11111C12.2222 1.72222 12.7222 2.22222 13.3333 2.22222H16.2111L6.06667 12.3667C5.63333 12.8 5.63333 13.5 6.06667 13.9333C6.5 14.3667 7.2 14.3667 7.63333 13.9333L17.7778 3.78889V6.66667C17.7778 7.27778 18.2778 7.77778 18.8889 7.77778C19.5 7.77778 20 7.27778 20 6.66667V1.11111C20 0.5 19.5 0 18.8889 0H13.3333C12.7222 0 12.2222 0.5 12.2222 1.11111Z" fill="#FCFCFC"/>
</svg>
