<svg width="21" height="20" viewBox="0 0 21 20" fill="none" xmlns="http://www.w3.org/2000/svg">
<path d="M17.2411 17.7778H3.9078C3.29669 17.7778 2.79669 17.2778 2.79669 16.6667V3.33333C2.79669 2.72222 3.29669 2.22222 3.9078 2.22222H9.46335C10.0745 2.22222 10.5745 1.72222 10.5745 1.11111C10.5745 0.5 10.0745 0 9.46335 0H2.79669C1.56335 0 0.574463 1 0.574463 2.22222V17.7778C0.574463 19 1.57446 20 2.79669 20H18.3522C19.5745 20 20.5745 19 20.5745 17.7778V11.1111C20.5745 10.5 20.0745 10 19.4634 10C18.8522 10 18.3522 10.5 18.3522 11.1111V16.6667C18.3522 17.2778 17.8522 17.7778 17.2411 17.7778ZM12.7967 1.11111C12.7967 1.72222 13.2967 2.22222 13.9078 2.22222H16.7856L6.64113 12.3667C6.2078 12.8 6.2078 13.5 6.64113 13.9333C7.07446 14.3667 7.77446 14.3667 8.2078 13.9333L18.3522 3.78889V6.66667C18.3522 7.27778 18.8522 7.77778 19.4634 7.77778C20.0745 7.77778 20.5745 7.27778 20.5745 6.66667V1.11111C20.5745 0.5 20.0745 0 19.4634 0H13.9078C13.2967 0 12.7967 0.5 12.7967 1.11111Z" fill="#51E14E"/>
</svg>
