<svg width="28" height="28" viewBox="0 0 28 28" fill="none" xmlns="http://www.w3.org/2000/svg">
<path d="M24.5 15.5V23C24.5 23.825 23.825 24.5 23 24.5H5C4.175 24.5 3.5 23.825 3.5 23V15.5C3.5 14.675 2.825 14 2 14C1.175 14 0.5 14.675 0.5 15.5V24.5C0.5 26.15 1.85 27.5 3.5 27.5H24.5C26.15 27.5 27.5 26.15 27.5 24.5V15.5C27.5 14.675 26.825 14 26 14C25.175 14 24.5 14.675 24.5 15.5ZM15.5 15.005L18.32 12.185C18.905 11.6 19.85 11.6 20.435 12.185C21.02 12.77 21.02 13.715 20.435 14.3L15.05 19.685C14.465 20.27 13.52 20.27 12.935 19.685L7.55 14.3C6.965 13.715 6.965 12.77 7.55 12.185C8.135 11.6 9.08 11.6 9.665 12.185L12.5 15.005V2C12.5 1.175 13.175 0.5 14 0.5C14.825 0.5 15.5 1.175 15.5 2V15.005Z" fill="#222222"/>
</svg>
