<svg width="36" height="36" viewBox="0 0 36 36" fill="none" xmlns="http://www.w3.org/2000/svg">
<g clip-path="url(#clip0_19_1379)">
<path d="M27 24.12C25.86 24.12 24.84 24.57 24.06 25.275L13.365 19.05C13.44 18.705 13.5 18.36 13.5 18C13.5 17.64 13.44 17.295 13.365 16.95L23.94 10.785C24.75 11.535 25.815 12 27 12C29.49 12 31.5 9.99 31.5 7.5C31.5 5.01 29.49 3 27 3C24.51 3 22.5 5.01 22.5 7.5C22.5 7.86 22.56 8.205 22.635 8.55L12.06 14.715C11.25 13.965 10.185 13.5 9 13.5C6.51 13.5 4.5 15.51 4.5 18C4.5 20.49 6.51 22.5 9 22.5C10.185 22.5 11.25 22.035 12.06 21.285L22.74 27.525C22.665 27.84 22.62 28.17 22.62 28.5C22.62 30.915 24.585 32.88 27 32.88C29.415 32.88 31.38 30.915 31.38 28.5C31.38 26.085 29.415 24.12 27 24.12Z" fill="#222222"/>
</g>
<defs>
<clipPath id="clip0_19_1379">
<rect width="36" height="36" fill="white"/>
</clipPath>
</defs>
</svg>
